<svg xmlns="http://www.w3.org/2000/svg" width="2160" height="80" viewBox="0 0 2160 80">
  <defs>
    <style>
      .cls-1 {
        fill: #fff;
        fill-rule: evenodd;
      }
    </style>
  </defs>
  <path class="cls-1" d="M1919.66,53V45.052h159.97V53H1919.66Z"/>
  <path id="angle_1" data-name="angle 1" class="cls-1" d="M1907.66,53h12V45.052"/>
  <path class="cls-1" d="M2131.42-.587L2128.6-3.4a2.011,2.011,0,0,0-2.83,0l-50.2,49.876a1.98,1.98,0,0,0,0,2.81l2.83,2.81a2.011,2.011,0,0,0,2.83,0l50.19-49.876A1.98,1.98,0,0,0,2131.42-.587Z"/>
  <path class="cls-1" d="M1910.66,51.013H1644.69a0.993,0.993,0,0,0,0,1.987h265.97A0.993,0.993,0,1,0,1910.66,51.013Z"/>
  <path class="cls-1" d="M1592.71,0.346H1280.74a0.993,0.993,0,0,0,0,1.987h311.97A0.993,0.993,0,0,0,1592.71.346Z"/>
  <path class="cls-1" d="M1645.44,52.24a1.012,1.012,0,0,1-1.42,0L1593.11,1.67a1,1,0,0,1,1.41-1.405l50.92,50.57A0.99,0.99,0,0,1,1645.44,52.24Z"/>
  <path class="cls-1" d="M240.369,53V45.052H80.4V53H240.369Z"/>
  <path id="angle_1-2" data-name="angle 1" class="cls-1" d="M252.367,53h-12V45.052"/>
  <path class="cls-1" d="M28.607-.587L31.435-3.4a2.009,2.009,0,0,1,2.828,0l50.2,49.876a1.978,1.978,0,0,1,0,2.81L81.631,52.1a2.009,2.009,0,0,1-2.828,0L28.607,2.223A1.978,1.978,0,0,1,28.607-.587Z"/>
  <path class="cls-1" d="M249.361,51.013H515.327a0.993,0.993,0,1,1,0,1.987H249.361A0.993,0.993,0,0,1,249.361,51.013Z"/>
  <path class="cls-1" d="M567.3,0.346H879.263a0.993,0.993,0,1,1,0,1.987H567.3A0.993,0.993,0,0,1,567.3.346Z"/>
  <path class="cls-1" d="M514.579,52.24a1,1,0,0,0,1.414,0L566.905,1.67a0.989,0.989,0,0,0,0-1.4,1,1,0,0,0-1.414,0L514.58,50.835A0.989,0.989,0,0,0,514.579,52.24Z"/>
</svg>
