<svg xmlns="http://www.w3.org/2000/svg" width="80" height="1440" viewBox="0 0 80 1440">
  <defs>
    <style>
      .cls-1 {
        fill: #fff;
        fill-rule: evenodd;
      }
    </style>
  </defs>
  <path class="cls-1" d="M25.375,1207h8v160h-8V1207Z"/>
  <path id="angle_1" data-name="angle 1" class="cls-1" d="M25.375,1195v12h8"/>
  <path class="cls-1" d="M26.375,1199a1,1,0,0,0,1-1V968a1,1,0,1,0-2,0v230A1,1,0,0,0,26.375,1199Z"/>
  <path class="cls-1" d="M53.371,816a1,1,0,0,1,1,1V935a1,1,0,1,1-2,0V817A1,1,0,0,1,53.371,816Z"/>
  <path class="cls-1" d="M53.654,934.019a1,1,0,0,1,.123,1.408L26.785,967.6a1,1,0,1,1-1.532-1.285l26.993-32.174A1,1,0,0,1,53.654,934.019Z"/>
  <path class="cls-1" d="M25.375,233h8V73h-8V233Z"/>
  <path id="angle_1-2" data-name="angle 1" class="cls-1" d="M25.375,245V233h8"/>
  <path class="cls-1" d="M26.375,241a1,1,0,0,1,1,1V472a1,1,0,1,1-2,0V242A1,1,0,0,1,26.375,241Z"/>
  <path class="cls-1" d="M53.371,624a1,1,0,0,0,1-1V505a1,1,0,1,0-2,0V623A1,1,0,0,0,53.371,624Z"/>
  <path class="cls-1" d="M53.654,505.981a1,1,0,0,0,.123-1.408L26.785,472.4a1,1,0,1,0-1.532,1.285l26.993,32.174A1,1,0,0,0,53.654,505.981Z"/>
</svg>
