<svg xmlns="http://www.w3.org/2000/svg" width="80" height="1440" viewBox="0 0 80 1440">
  <defs>
    <style>
      .cls-1, .cls-2 {
        fill: #fff;
      }

      .cls-1 {
        fill-rule: evenodd;
      }
    </style>
  </defs>
  <path class="cls-1" d="M54.625,1207h-8v160h8V1207Z"/>
  <path id="angle_1" data-name="angle 1" class="cls-1" d="M54.625,1195v12h-8"/>
  <rect class="cls-2" x="52.625" y="967" width="2" height="232" rx="1" ry="1"/>
  <rect class="cls-2" x="25.625" y="816" width="2" height="120" rx="1" ry="1"/>
  <path class="cls-1" d="M26.346,934.019a1,1,0,0,0-.123,1.408L53.216,967.6a1,1,0,1,0,1.532-1.285L27.754,934.142A1,1,0,0,0,26.346,934.019Z"/>
  <path class="cls-1" d="M54.625,233h-8V73h8V233Z"/>
  <path id="angle_1-2" data-name="angle 1" class="cls-1" d="M54.625,245V233h-8"/>
  <rect class="cls-2" x="52.625" y="241" width="2" height="232" rx="1" ry="1"/>
  <rect class="cls-2" x="25.625" y="504" width="2" height="120" rx="1" ry="1"/>
  <path class="cls-1" d="M26.346,505.981a1,1,0,0,1-.123-1.408L53.216,472.4a1,1,0,1,1,1.532,1.285L27.754,505.858A1,1,0,0,1,26.346,505.981Z"/>
</svg>
