<svg xmlns="http://www.w3.org/2000/svg" width="2160" height="80" viewBox="0 0 2160 80">
  <defs>
    <style>
      .cls-1 {
        fill: #fff;
        fill-rule: evenodd;
      }
    </style>
  </defs>
  <path class="cls-1" d="M240.344,27v7.948H80.367V27H240.344Z"/>
  <path id="angle_1" data-name="angle 1" class="cls-1" d="M252.342,27h-12v7.948"/>
  <path class="cls-1" d="M28.576,80.587L31.4,83.4a2.009,2.009,0,0,0,2.828,0l50.2-49.876a1.978,1.978,0,0,0,0-2.81L81.6,27.9a2.009,2.009,0,0,0-2.828,0l-50.2,49.876A1.978,1.978,0,0,0,28.576,80.587Z"/>
  <path class="cls-1" d="M249.336,28.987H515.31a0.993,0.993,0,1,0,0-1.987H249.336A0.993,0.993,0,0,0,249.336,28.987Z"/>
  <path class="cls-1" d="M567.29,79.654H879.257a0.993,0.993,0,0,0,0-1.987H567.29A0.993,0.993,0,1,0,567.29,79.654Z"/>
  <path class="cls-1" d="M514.562,27.76a1,1,0,0,1,1.414,0l50.913,50.57a0.989,0.989,0,0,1,0,1.405,1,1,0,0,1-1.414,0l-50.913-50.57A0.989,0.989,0,0,1,514.562,27.76Z"/>
  <path class="cls-1" d="M1919.63,27v7.948H2079.6V27H1919.63Z"/>
  <path id="angle_1-2" data-name="angle 1" class="cls-1" d="M1907.63,27h12v7.948"/>
  <path class="cls-1" d="M2131.39,80.587l-2.82,2.81a2.011,2.011,0,0,1-2.83,0l-50.2-49.876a1.98,1.98,0,0,1,0-2.81l2.83-2.81a2.011,2.011,0,0,1,2.83,0l50.19,49.876A1.98,1.98,0,0,1,2131.39,80.587Z"/>
  <path class="cls-1" d="M1910.64,28.987H1644.67a0.993,0.993,0,0,1,0-1.987h265.97A0.993,0.993,0,0,1,1910.64,28.987Z"/>
  <path class="cls-1" d="M1592.69,79.654H1280.74a0.993,0.993,0,1,1,0-1.987h311.95A0.993,0.993,0,1,1,1592.69,79.654Z"/>
  <path class="cls-1" d="M1645.42,27.76a1,1,0,0,0-1.41,0L1593.1,78.33a0.981,0.981,0,0,0-.01,1.405,1.012,1.012,0,0,0,1.42,0l50.91-50.57A0.99,0.99,0,0,0,1645.42,27.76Z"/>
</svg>
